#!OML:ASF H:\Terrain\Walking\May29\JustinRory\Justin.ASF
:FULLY-SPECIFIED
:DEGREES
97
root 7.99879 17.6043 -16.0108 1.10311 -3.13028 -0.865397
lowerback 0.630204 -0.252183 -1.86189
upperback 0.462808 -0.346329 1.86599
thorax 0.143576 -0.180784 2.96055
lowerneck -17.6377 -4.88561 -13.7991
upperneck 15.9266 -5.04349 9.9927
head 8.47447 -2.24778 5.03211
rclavicle -2.08724e-015 -1.35174e-014
rhumerus 8.81592 8.66678 -57.222
rradius 104.045
rwrist 11.8285
rhand -34.5222 42.6662
rfingers 7.12502
rthumb -7.68366 12.8258
lclavicle -2.08724e-015 -1.35174e-014
lhumerus 10.0883 -3.54843 58.1138
lradius 100.791
lwrist -20.936
lhand -18.0347 38.5849
lfingers 7.12502
lthumb 8.23686 68.4043
rfemur -5.80225 -3.15517 17.7612
rtibia 19.2053
rfoot -12.1381 -9.24033
rtoes 4.01085
lfemur -5.83462 2.55623 -16.3505
ltibia 21.1735
lfoot -14.3424 3.79225
ltoes -13.5903
98
root 7.99173 17.6041 -16.0116 1.17692 -3.15091 -1.08558
lowerback 0.790132 -0.250613 -1.60765
upperback 0.370526 -0.343637 1.91543
thorax -0.0420822 -0.17563 2.86926
lowerneck -17.9445 -4.95705 -14.144
upperneck 16.3644 -5.06267 10.145
head 8.69344 -2.26106 5.1488
rclavicle 5.31749e-015 -3.18055e-015
rhumerus 8.97186 8.56358 -57.1143
rradius 104.175
rwrist 11.8521
rhand -34.5826 42.761
rfingers 7.12502
rthumb -7.74194 12.9227
lclavicle 5.31749e-015 -3.18055e-015
lhumerus 10.5192 -3.33702 58.091
lradius 100.862
lwrist -21.3205
lhand -18.5091 38.2403
lfingers 7.12502
lthumb 7.77897 68.0772
rfemur -5.81581 -3.15059 18.0454
rtibia 19.0914
rfoot -12.0148 -9.26301
rtoes 3.43884
lfemur -5.98095 2.59617 -16.0733
ltibia 21.3285
lfoot -14.3545 3.76568
ltoes -13.4198
99
root 7.98469 17.6066 -16.0157 1.25176 -3.08646 -1.05065
lowerback 1.10944 -0.238498 -1.57623
upperback 0.208449 -0.328428 1.89037
thorax -0.388409 -0.16204 2.8279
lowerneck -18.1091 -5.01648 -14.4676
upperneck 16.6182 -5.09348 10.3647
head 8.8286 -2.27348 5.28213
rclavicle 1.15792e-014 2.38542e-014
rhumerus 9.06998 8.43354 -56.9661
rradius 104.263
rwrist 11.921
rhand -34.6576 42.8957
rfingers 7.12502
rthumb -7.8143 13.0601
lclavicle 1.15792e-014 2.38542e-014
lhumerus 10.8945 -3.30023 58.0789
lradius 100.941
lwrist -22.0393
lhand -18.2873 38.2493
lfingers 7.12502
lthumb 7.99306 68.0782
rfemur -5.92944 -3.16537 18.047
rtibia 19.1205
rfoot -11.9492 -9.33201
rtoes 3.15591
lfemur -6.12032 2.5886 -16.0821
ltibia 21.3861
lfoot -14.2938 3.72942
ltoes -13.1665
100
root 7.98296 17.6076 -16.0148 1.30287 -2.97474 -0.765201
lowerback 1.16664 -0.258651 -1.82952
upperback 0.188685 -0.358934 1.84912
thorax -0.437559 -0.176148 2.92903
lowerneck -17.4348 -4.83251 -14.1391
upperneck 15.9596 -4.91757 10.0311
head 8.4438 -2.2113 5.12079
rclavicle -2.79541e-015 1.98785e-015
rhumerus 9.44507 8.27232 -56.7195
rradius 104.223
rwrist 12.27
rhand -36.8978 44.5267
rfingers 7.12502
rthumb -9.97607 14.7831
lclavicle -2.79541e-015 1.98785e-015
lhumerus 11.2624 -3.04099 58.101
lradius 101.048
lwrist -22.9337
lhand -17.774 38.4213
lfingers 7.12502
lthumb 8.48848 68.2307
rfemur -6.05181 -3.39246 17.7141
rtibia 19.2679
rfoot -12.0325 -9.16141
rtoes 3.53055
lfemur -6.18596 2.37428 -16.4159
ltibia 21.371
lfoot -14.3652 3.86049
ltoes -13.2038
101
root 7.98211 17.6053 -16.0116 1.27946 -2.90083 -0.484078
lowerback 1.0728 -0.338234 -2.02598
upperback 0.349794 -0.46731 1.76257
thorax -0.211968 -0.235229 2.95069
lowerneck -16.1393 -4.55722 -12.155
upperneck 14.2113 -4.7016 7.83166
head 7.50265 -2.20667 4.0403
rclavicle 3.13086e-015 -7.95139e-016
rhumerus 10.0984 8.01616 -56.7251
rradius 104.109
rwrist 12.6859
rhand -34.0014 41.6072
rfingers 7.12502
rthumb -7.18093 11.749
lclavicle 3.13086e-015 -7.95139e-016
lhumerus 11.8231 -2.56679 57.9452
lradius 101.164
lwrist -23.8392
lhand -17.0465 38.9458
lfingers 7.12502
lthumb 9.19048 68.7256
rfemur -6.08796 -3.61863 17.3776
rtibia 19.4266
rfoot -12.1247 -8.9563
rtoes 3.89167
lfemur -6.14574 1.97941 -16.7643
ltibia 21.3479
lfoot -14.3965 4.22704
ltoes -13.7461
102
root 7.97071 17.6048 -16.0184 1.31417 -2.88979 -0.637455
lowerback 1.1158 -0.348831 -1.85057
upperback 0.475377 -0.480682 1.77877
thorax -0.107827 -0.24468 2.8684
lowerneck -14.5296 -4.49448 -9.6452
upperneck 11.7156 -4.78002 4.8442
head 6.29083 -2.3698 2.64263
rclavicle 1.11195e-014 -1.47101e-014
rhumerus 10.6592 7.62757 -56.7794
rradius 104.053
rwrist 12.7735
rhand -33.3992 41.8921
rfingers 7.12502
rthumb -6.59959 12.0149
lclavicle 1.11195e-014 -1.47101e-014
lhumerus 12.5414 -2.3258 57.8496
lradius 101.284
lwrist -24.3734
lhand -16.2723 39.5513
lfingers 7.12502
lthumb 9.93741 69.2968
rfemur -6.2149 -3.47811 17.6194
rtibia 19.5445
rfoot -12.168 -9.14144
rtoes 3.57435
lfemur -6.21567 1.828 -16.5542
ltibia 21.3698
lfoot -14.3038 4.38498
ltoes -13.7214
103
root 7.95037 17.6054 -16.026 1.33232 -3.00923 -0.867771
lowerback 1.30289 -0.254615 -1.86753
upperback 0.455377 -0.356721 1.94576
thorax -0.239844 -0.180819 3.0499
lowerneck -15.6888 -4.5284 -11.8972
upperneck 13.6805 -4.70461 7.5433
head 7.23823 -2.22249 3.89919
rclavicle 1.59276e-014 1.90833e-014
rhumerus 11.0174 7.36227 -56.5369
rradius 104.045
rwrist 12.5239
rhand -37.491 44.4095
rfingers 7.12502
rthumb -10.5483 14.6942
lclavicle 1.59276e-014 1.90833e-014
lhumerus 13.0004 -2.292 58.1096
lradius 101.39
lwrist -24.526
lhand -15.5724 39.6157
lfingers 7.12502
lthumb 10.6126 69.3277
rfemur -6.28922 -3.02661 17.9888
rtibia 19.5528
rfoot -12.1995 -9.47804
rtoes 3.55434
lfemur -6.33607 2.00908 -16.2036
ltibia 21.539
lfoot -14.3498 4.3111
ltoes -13.5509
104
root 7.93487 17.6068 -16.028 1.35677 -3.14865 -0.926817
lowerback 1.45971 -0.13757 -2.04164
upperback 0.392537 -0.203796 2.07052
thorax -0.401259 -0.101254 3.27551
lowerneck -16.3771 -4.47324 -12.4088
upperneck 14.3811 -4.57566 8.23216
head 7.60173 -2.12134 4.23377
rclavicle 1.23246e-014 1.15295e-014
rhumerus 11.2567 7.1178 -56.2685
rradius 104.093
rwrist 12.2768
rhand -36.8966 43.9188
rfingers 7.12502
rthumb -9.97491 14.1752
lclavicle 1.23246e-014 1.15295e-014
lhumerus 13.3423 -2.33656 58.299
lradius 101.455
lwrist -24.544
lhand -15.0896 39.55
lfingers 7.12502
lthumb 11.0783 69.2376
rfemur -6.31236 -2.74253 18.1386
rtibia 19.4812
rfoot -12.1497 -9.61952
rtoes 3.84604
lfemur -6.48968 2.16412 -16.0783
ltibia 21.7902
lfoot -14.4903 4.32478
ltoes -13.7155
105
root 7.92748 17.6065 -16.029 1.56528 -3.22233 -1.24839
lowerback 1.40388 -0.0864825 -1.64287
upperback 0.35115 -0.12878 2.1184
thorax -0.418658 -0.0632167 3.09839
lowerneck -16.7255 -4.47704 -12.2344
upperneck 14.7063 -4.5671 8.08349
head 7.76042 -2.11767 4.15708
rclavicle 2.23633e-016 1.03368e-014
rhumerus 11.4709 6.9152 -56.1863
rradius 104.284
rwrist 12.0564
rhand -33.2631 40.1106
rfingers 7.12502
rthumb -6.46824 10.2294
lclavicle 2.23633e-016 1.03368e-014
lhumerus 13.8112 -2.3476 58.1128
lradius 101.449
lwrist -24.6747
lhand -14.4786 39.8075
lfingers 7.12502
lthumb 11.6676 69.4626
rfemur -6.51548 -2.68879 18.5522
rtibia 19.4597
rfoot -12.09 -9.63366
rtoes 3.72161
lfemur -6.77914 2.09231 -15.7036
ltibia 21.942
lfoot -14.5464 4.44643
ltoes -13.124
106
root 7.91759 17.6035 -16.021 1.6702 -3.13774 -1.52236
lowerback 1.35501 -0.160894 -1.22552
upperback 0.298387 -0.221519 2.09643
thorax -0.440947 -0.109204 2.84183
lowerneck -16.745 -4.35545 -12.0561
upperneck 14.87 -4.44632 8.06345
head 7.79964 -2.0535 4.13825
rclavicle 5.13113e-015 3.18055e-015
rhumerus 11.6621 6.93214 -56.2751
rradius 104.443
rwrist 12.1599
rhand -36.4427 42.4528
rfingers 7.12502
rthumb -9.53694 12.6886
lclavicle 5.13113e-015 3.18055e-015
lhumerus 14.0661 -2.25727 57.7665
lradius 101.495
lwrist -24.9228
lhand -13.3084 40.057
lfingers 7.12502
lthumb 12.7959 69.6448
rfemur -6.5932 -2.7727 18.868
rtibia 19.5155
rfoot -12.2332 -9.62688
rtoes 4.02949
lfemur -6.87134 2.04536 -15.3762
ltibia 21.9756
lfoot -14.6151 4.44833
ltoes -13.4195
107
root 7.90482 17.6044 -16.0072 1.58576 -2.96291 -1.25211
lowerback 1.43077 -0.225172 -1.48734
upperback 0.31265 -0.312071 1.97804
thorax -0.462725 -0.154141 2.86932
lowerneck -16.8097 -4.19844 -11.7131
upperneck 15.0065 -4.29306 7.94543
head 7.82835 -1.97213 4.06225
rclavicle 1.43995e-014 -1.19271e-014
rhumerus 11.9955 6.78328 -56.3464
rradius 104.388
rwrist 12.6486
rhand -35.8738 41.3171
rfingers 7.12502
rthumb -8.98802 11.5285
lclavicle 1.43995e-014 -1.19271e-014
lhumerus 14.3708 -2.17685 57.4394
lradius 101.662
lwrist -25.1407
lhand -12.0126 40.1662
lfingers 7.12502
lthumb 14.0449 69.6716
rfemur -6.4828 -3.02303 18.5708
rtibia 19.5664
rfoot -12.2927 -9.57278
rtoes 3.84253
lfemur -6.76653 2.06282 -15.648
ltibia 21.9952
lfoot -14.6707 4.41037
ltoes -15.103
108
root 7.89341 17.6067 -15.9973 1.47355 -2.75526 -0.736716
lowerback 1.52386 -0.221196 -2.07056
upperback 0.504668 -0.317949 1.89197
thorax -0.314887 -0.160975 3.10949
lowerneck -17.2145 -4.15539 -10.8532
upperneck 14.9417 -4.24205 7.10374
head 7.83309 -1.96892 3.63684
rclavicle -6.21202e-016 6.36111e-015
rhumerus 12.5894 6.35752 -56.1842
rradius 104.268
rwrist 13.115
rhand -32.1167 37.7546
rfingers 7.12502
rthumb -5.36141 7.8424
lclavicle -6.21202e-016 6.36111e-015
lhumerus 15.0463 -2.05738 57.3239
lradius 101.808
lwrist -25.3191
lhand -11.3048 40.0752
lfingers 7.12502
lthumb 14.7269 69.532
rfemur -6.32824 -3.42699 18.0305
rtibia 19.6021
rfoot -12.2 -9.45003
rtoes 2.80356
lfemur -6.66291 1.92574 -16.1812
ltibia 22.0172
lfoot -14.6828 4.33846
ltoes -15.2809
109
root 7.88315 17.6066 -15.9919 1.44932 -2.58783 -0.632021
lowerback 1.53448 -0.173986 -2.22947
upperback 0.699771 -0.258059 1.95227
thorax -0.123837 -0.136612 3.25992
lowerneck -17.6257 -4.39887 -11.0615
upperneck 14.8182 -4.43064 6.90033
head 7.8822 -2.08079 3.57289
rclavicle -2.5345e-015 -8.34896e-015
rhumerus 12.9952 5.84431 -55.8805
rradius 104.3
rwrist 13.408
rhand -29.3744 35.2425
rfingers 7.12502
rthumb -2.71327 5.27997
lclavicle -2.5345e-015 -8.34896e-015
lhumerus 15.7408 -2.0316 57.5242
lradius 101.852
lwrist -25.4001
lhand -10.6252 39.6746
lfingers 7.12502
lthumb 15.3815 69.0825
rfemur -6.22637 -3.71798 17.9473
rtibia 19.584
rfoot -12.1905 -9.36252
rtoes 2.32361
lfemur -6.6799 1.93239 -16.2447
ltibia 22.1034
lfoot -14.7567 4.1306
ltoes -14.8474
110
root 7.86776 17.605 -15.9945 1.59364 -2.75072 -1.09834
lowerback 1.40072 -0.079855 -1.79457
upperback 0.795455 -0.125733 2.08241
thorax 0.0386839 -0.0730498 3.14614
lowerneck -17.7624 -4.48476 -10.9681
upperneck 14.7822 -4.5212 6.72159
head 7.89605 -2.13261 3.48362
rclavicle 6.03808e-015 9.54166e-015
rhumerus 13.288 5.39391 -55.6991
rradius 104.361
rwrist 13.4282
rhand -29.1964 35.1093
rfingers 7.12502
rthumb -2.5414 5.14467
lclavicle 6.03808e-015 9.54166e-015
lhumerus 16.3331 -1.98618 57.5964
lradius 101.85
lwrist -25.5017
lhand -9.1864 39.4556
lfingers 7.12502
lthumb 16.767 68.7516
rfemur -6.32145 -3.35029 18.5382
rtibia 19.434
rfoot -12.1474 -9.54461
rtoes 2.75078
lfemur -6.91609 2.12056 -15.6711
ltibia 22.3295
lfoot -14.8433 4.15054
ltoes -15.3418
111
root 7.85004 17.6028 -16.0008 1.70883 -2.9851 -1.72473
lowerback 1.40926 -0.0522772 -1.02878
upperback 0.781732 -0.0798578 2.08552
thorax 0.0152305 -0.0473381 2.71686
lowerneck -17.6634 -4.36821 -10.5898
upperneck 14.7867 -4.44993 6.60496
head 7.86141 -2.09015 3.39265
rclavicle 4.89507e-015 -5.96354e-015
rhumerus 13.5237 5.19742 -55.9122
rradius 104.336
rwrist 13.3332
rhand -29.0617 34.8791
rfingers 7.12502
rthumb -2.41126 4.913
lclavicle 4.89507e-015 -5.96354e-015
lhumerus 16.6736 -1.9139 57.1951
lradius 101.754
lwrist -25.7829
lhand -7.50425 39.3554
lfingers 7.12502
lthumb 18.3858 68.5065
rfemur -6.37566 -2.85626 19.3246
rtibia 19.2248
rfoot -12.0387 -9.74935
rtoes 3.89728
lfemur -7.1358 2.09562 -14.9183
ltibia 22.6082
lfoot -14.9699 4.42308
ltoes -15.7812
